<?xml version="1.0" encoding="UTF-8"?>
<svg width="52px" height="52px" viewBox="0 0 52 52" version="1.1" xmlns="http://www.w3.org/2000/svg" xmlns:xlink="http://www.w3.org/1999/xlink">
    <title>ic-chat</title>
    <g id="Home-Page" stroke="none" stroke-width="1" fill="none" fill-rule="evenodd">
        <g transform="translate(-1274.000000, -676.000000)" id="ic-chat">
            <g transform="translate(1274.000000, 676.000000)">
                <path d="M24,0 L28,0 C41.254834,-2.4348735e-15 52,10.745166 52,24 L52,28 C52,41.254834 41.254834,52 28,52 L0,52 L0,52 L0,24 C-1.623249e-15,10.745166 10.745166,2.4348735e-15 24,0 Z" id="Rectangle" fill="#B22026"></path>
                <g id="message-circle-(1)" transform="translate(14.000000, 14.000000)" stroke="#FFFFFF" stroke-linecap="round" stroke-linejoin="round" stroke-width="2.66666667">
                    <path d="M24.000038,11.3333333 C24.0045883,13.0931571 23.5934251,14.8291794 22.8,16.4 C20.8812788,20.2391037 16.9585433,22.6650059 12.6666667,22.6666667 C10.9068429,22.671255 9.17082056,22.2600918 7.6,21.4666667 L0,24 L2.53333333,16.4 C1.73990819,14.8291794 1.328745,13.0931571 1.33333333,11.3333333 C1.33499408,7.04145665 3.76089629,3.11872116 7.6,1.2 C9.17082056,0.406574853 10.9068429,-0.00458833628 12.6666667,-3.79841362e-05 L13.3333333,-3.79841362e-05 C19.0877459,0.317466255 23.6825337,4.9122541 24.000038,10.6666667 L24.000038,11.3333333 L24.000038,11.3333333 Z" id="Path"></path>
                </g>
            </g>
        </g>
    </g>
</svg>