<?xml version="1.0" encoding="UTF-8"?>
<svg width="24px" height="24px" viewBox="0 0 24 24" version="1.1" xmlns="http://www.w3.org/2000/svg" xmlns:xlink="http://www.w3.org/1999/xlink">
    <title>ic-mouse</title>
    <g id="Home-Page" stroke="none" stroke-width="1" fill="none" fill-rule="evenodd">
        <g transform="translate(-671.000000, -704.000000)" fill="#FFFFFF" fill-rule="nonzero" id="ic-mouse">
            <g transform="translate(671.000000, 704.000000)">
                <g id="mouse" transform="translate(5.000000, 2.000000)">
                    <path d="M7.0703125,0 C3.18730469,0 0.028359375,3.20859375 0.028359375,7.15230469 L0.028359375,12.8478906 C0.028359375,16.7916016 3.18730469,20 7.0703125,20 C10.9530859,20 14.1122656,16.8013281 14.1122656,12.8697656 L14.1122656,7.15230469 C14.1122656,3.20859375 10.9530859,0 7.0703125,0 Z M12.7877344,12.8697656 C12.7877344,16.0710937 10.2230469,18.6755078 7.0703125,18.6755078 C3.91777344,18.6755078 1.35289062,16.0611719 1.35289062,12.8476953 L1.35289062,7.15230469 C1.35289062,3.93882812 3.91777344,1.32449219 7.0703125,1.32449219 C10.2230859,1.32449219 12.7877344,3.93882812 12.7877344,7.15230469 L12.7877344,12.8697656 Z" id="Shape"></path>
                    <path d="M7.0703125,5.47460938 C6.70453125,5.47460938 6.40804688,5.77109375 6.40804688,6.136875 L6.40804688,8.45476563 C6.40804688,8.82054688 6.70453125,9.11703125 7.0703125,9.11703125 C7.43609375,9.11703125 7.73257813,8.82054688 7.73257813,8.45476563 L7.73257813,6.136875 C7.73257813,5.77109375 7.43609375,5.47460938 7.0703125,5.47460938 Z" id="Path"></path>
                </g>
            </g>
        </g>
    </g>
</svg>