<?xml version="1.0" encoding="UTF-8"?>
<svg width="24px" height="24px" viewBox="0 0 24 24" version="1.1" xmlns="http://www.w3.org/2000/svg" xmlns:xlink="http://www.w3.org/1999/xlink">
    <title>34236E51-304D-426A-9529-D8EF95E86F8C</title>
    <g id="Blog-Page" stroke="none" stroke-width="1" fill="none" fill-rule="evenodd">
        <g id="Portfolio-Page" transform="translate(-110.000000, -1401.000000)">
            <g id="ic-calendar" transform="translate(110.000000, 1401.000000)">
                <rect id="Rectangle" fill="#FFFFFF" opacity="0.0807524182" x="0" y="0" width="24" height="24" rx="4"></rect>
                <g id="calendar_major_monotone" transform="translate(4.000000, 4.000000)" fill="#B22026">
                    <path d="M15.2,1.6 L12.8,1.6 L12.8,0.8 C12.8,0.3581722 12.4418278,0 12,0 C11.5581722,0 11.2,0.3581722 11.2,0.8 L11.2,1.6 L4.8,1.6 L4.8,0.8 C4.8,0.3581722 4.4418278,0 4,0 C3.5581722,0 3.2,0.3581722 3.2,0.8 L3.2,1.6 L0.8,1.6 C0.3581722,1.6 0,1.9581722 0,2.4 L0,15.2 C0,15.6418278 0.3581722,16 0.8,16 L15.2,16 C15.6418278,16 16,15.6418278 16,15.2 L16,2.4 C16,1.9581722 15.6418278,1.6 15.2,1.6 Z M1.6,14.4 L14.4,14.4 L14.4,6.4 L1.6,6.4 L1.6,14.4 Z M1.6,4.8 L14.4,4.8 L14.4,3.2 L1.6,3.2 L1.6,4.8 Z M4.8,8 C4.3581722,8 4,8.3581722 4,8.8 C4,9.2418278 4.3581722,9.6 4.8,9.6 C5.2418278,9.6 5.6,9.2418278 5.6,8.8 C5.6,8.3581722 5.2418278,8 4.8,8 M4.8,11.2 C4.3581722,11.2 4,11.5581722 4,12 C4,12.4418278 4.3581722,12.8 4.8,12.8 C5.2418278,12.8 5.6,12.4418278 5.6,12 C5.6,11.5581722 5.2418278,11.2 4.8,11.2 M8,11.2 C7.5581722,11.2 7.2,11.5581722 7.2,12 C7.2,12.4418278 7.5581722,12.8 8,12.8 C8.4418278,12.8 8.8,12.4418278 8.8,12 C8.8,11.5581722 8.4418278,11.2 8,11.2 M8,8 C7.5581722,8 7.2,8.3581722 7.2,8.8 C7.2,9.2418278 7.5581722,9.6 8,9.6 C8.4418278,9.6 8.8,9.2418278 8.8,8.8 C8.8,8.3581722 8.4418278,8 8,8 M11.2,8 C10.7581722,8 10.4,8.3581722 10.4,8.8 C10.4,9.2418278 10.7581722,9.6 11.2,9.6 C11.6418278,9.6 12,9.2418278 12,8.8 C12,8.3581722 11.6418278,8 11.2,8" id="Shape"></path>
                </g>
            </g>
        </g>
    </g>
</svg>