<?xml version="1.0" encoding="UTF-8"?>
<svg width="24px" height="24px" viewBox="0 0 24 24" version="1.1" xmlns="http://www.w3.org/2000/svg" xmlns:xlink="http://www.w3.org/1999/xlink">
    <title>B8E85E30-A878-4F7C-9F33-C643750B6760</title>
    <g id="Blog-Page" stroke="none" stroke-width="1" fill="none" fill-rule="evenodd">
        <g id="Portfolio-Page" transform="translate(-468.000000, -1401.000000)">
            <g id="ic-kategory" transform="translate(468.000000, 1401.000000)">
                <rect id="Rectangle-Copy-11" fill="#FFFFFF" opacity="0.0807524182" x="0" y="0" width="24" height="24" rx="4"></rect>
                <g id="folder_major_monotone" transform="translate(4.000000, 4.000000)" fill="#B22026" fill-rule="nonzero">
                    <path d="M1.6,14.4 L14.4,14.4 L14.4,3.2 L7.2,3.2 C6.98777399,3.20030781 6.784194,3.11593873 6.6344,2.9656 L5.2688,1.6 L1.6,1.6 L1.6,14.4 Z M15.2,16 L0.8,16 C0.3581722,16 0,15.6418278 0,15.2 L0,0.8 C0,0.3581722 0.3581722,0 0.8,0 L5.6,0 C5.8128,0 6.016,0.084 6.1656,0.2344 L7.5312,1.6 L15.2,1.6 C15.6418278,1.6 16,1.9581722 16,2.4 L16,15.2 C16,15.6418278 15.6418278,16 15.2,16 Z" id="Shape"></path>
                </g>
            </g>
        </g>
    </g>
</svg>