<?xml version="1.0" encoding="UTF-8"?>
<svg width="24px" height="24px" viewBox="0 0 24 24" version="1.1" xmlns="http://www.w3.org/2000/svg" xmlns:xlink="http://www.w3.org/1999/xlink">
    <title>B5E80BCE-8D6E-4B89-ADBF-B0F30AF873D5</title>
    <g id="Blog-Page" stroke="none" stroke-width="1" fill="none" fill-rule="evenodd">
        <g id="Portfolio-Page" transform="translate(-292.000000, -1401.000000)">
            <g id="ic-user" transform="translate(292.000000, 1401.000000)">
                <rect id="Rectangle-Copy-10" fill="#FFFFFF" opacity="0.0807524182" x="0" y="0" width="24" height="24" rx="4"></rect>
                <g id="customers_major_monotone-copy" transform="translate(5.000000, 4.000000)" fill="#B22026" fill-rule="nonzero">
                    <path d="M12.5656,12.2344 C12.7797699,12.4486176 12.8544231,12.7655066 12.7584,13.0528 L11.9584,15.4528 C11.8498459,15.7795094 11.5442717,16 11.2,16 L1.6,16 C1.25551407,16.000083 0.949657547,15.7796342 0.8408,15.4528 L0.0408,13.0528 C-0.0550205323,12.7653569 0.0199478043,12.4484453 0.2344,12.2344 C0.3416,12.1264 2.908,9.6 6.4,9.6 C9.8912,9.6 12.4576,12.1264 12.5656,12.2344 Z M10.624,14.4 L11.0736,13.0504 C10.3376,12.4488 8.5496,11.2 6.4016,11.2 C4.2384,11.2 2.4592,12.4464 1.7264,13.048 L2.176,14.4 L10.624,14.4 Z M6.4,1.6 C5.0768,1.6 4,2.6768 4,4 C4,5.3232 5.0768,6.4 6.4,6.4 C7.7232,6.4 8.8,5.3232 8.8,4 C8.8,2.6768 7.7232,1.6 6.4,1.6 Z M6.4,8 C4.1944,8 2.4,6.2056 2.4,4 C2.4,1.7944 4.1944,0 6.4,0 C8.6056,0 10.4,1.7944 10.4,4 C10.4,6.2056 8.6056,8 6.4,8 Z" id="Shape"></path>
                </g>
            </g>
        </g>
    </g>
</svg>